<svg xmlns="http://www.w3.org/2000/svg" xmlns:xlink="http://www.w3.org/1999/xlink" width="200" zoomAndPan="magnify" viewBox="0 0 150 149.999998" height="200" preserveAspectRatio="xMidYMid meet" version="1.0"><defs><g/><clipPath id="2bd7914aa0"><path d="M 6.613281 0.960938 L 143 0.960938 L 143 148.710938 L 6.613281 148.710938 Z M 6.613281 0.960938 " clip-rule="nonzero"/></clipPath></defs><g clip-path="url(#2bd7914aa0)"><path fill="#000000" d="M 139.976562 3.910156 C 139.035156 2.964844 137.949219 2.238281 136.71875 1.726562 C 135.488281 1.214844 134.207031 0.960938 132.875 0.960938 L 16.796875 0.960938 C 16.136719 0.960938 15.484375 1.027344 14.839844 1.15625 C 14.195312 1.289062 13.566406 1.480469 12.957031 1.734375 C 12.351562 1.988281 11.773438 2.296875 11.226562 2.664062 C 10.679688 3.03125 10.171875 3.449219 9.707031 3.914062 C 9.242188 4.382812 8.828125 4.890625 8.464844 5.4375 C 8.097656 5.984375 7.789062 6.5625 7.539062 7.171875 C 7.285156 7.78125 7.097656 8.410156 6.96875 9.054688 C 6.84375 9.703125 6.777344 10.355469 6.777344 11.011719 L 6.777344 127.691406 C 6.777344 128.347656 6.84375 129 6.96875 129.648438 C 7.097656 130.292969 7.285156 130.921875 7.539062 131.53125 C 7.789062 132.136719 8.097656 132.71875 8.464844 133.265625 C 8.828125 133.8125 9.242188 134.320312 9.707031 134.789062 C 10.171875 135.253906 10.679688 135.671875 11.226562 136.039062 C 11.773438 136.40625 12.351562 136.714844 12.957031 136.96875 C 13.566406 137.222656 14.195312 137.414062 14.839844 137.542969 C 15.484375 137.675781 16.136719 137.742188 16.796875 137.742188 L 25.101562 137.742188 L 25.101562 142.921875 C 25.101562 143.304688 25.136719 143.683594 25.210938 144.0625 C 25.289062 144.4375 25.398438 144.804688 25.546875 145.15625 C 25.691406 145.511719 25.871094 145.847656 26.085938 146.167969 C 26.300781 146.488281 26.542969 146.78125 26.8125 147.054688 C 27.085938 147.324219 27.378906 147.566406 27.699219 147.78125 C 28.019531 147.996094 28.355469 148.175781 28.710938 148.320312 C 29.0625 148.46875 29.429688 148.578125 29.804688 148.652344 C 30.183594 148.730469 30.5625 148.765625 30.945312 148.765625 L 47.554688 148.765625 C 47.9375 148.765625 48.316406 148.730469 48.695312 148.652344 C 49.070312 148.578125 49.4375 148.46875 49.789062 148.320312 C 50.144531 148.175781 50.480469 147.996094 50.800781 147.78125 C 51.121094 147.566406 51.414062 147.324219 51.6875 147.054688 C 51.957031 146.78125 52.199219 146.488281 52.414062 146.167969 C 52.628906 145.847656 52.808594 145.511719 52.953125 145.15625 C 53.101562 144.804688 53.210938 144.4375 53.289062 144.0625 C 53.363281 143.683594 53.398438 143.304688 53.398438 142.921875 L 53.398438 137.742188 L 93.605469 137.742188 L 93.605469 142.921875 C 93.605469 143.304688 93.640625 143.683594 93.714844 144.0625 C 93.792969 144.4375 93.902344 144.804688 94.050781 145.15625 C 94.195312 145.511719 94.375 145.847656 94.589844 146.167969 C 94.804688 146.488281 95.046875 146.78125 95.316406 147.054688 C 95.589844 147.324219 95.882812 147.566406 96.203125 147.78125 C 96.523438 147.996094 96.859375 148.175781 97.214844 148.320312 C 97.566406 148.46875 97.933594 148.578125 98.308594 148.652344 C 98.6875 148.730469 99.066406 148.765625 99.449219 148.765625 L 116.058594 148.765625 C 116.441406 148.765625 116.820312 148.730469 117.199219 148.65625 C 117.574219 148.582031 117.941406 148.472656 118.296875 148.324219 C 118.652344 148.179688 118.988281 148 119.308594 147.785156 C 119.628906 147.570312 119.921875 147.328125 120.195312 147.058594 C 120.464844 146.785156 120.707031 146.492188 120.921875 146.171875 C 121.136719 145.851562 121.316406 145.515625 121.460938 145.160156 C 121.609375 144.804688 121.71875 144.4375 121.792969 144.0625 C 121.867188 143.6875 121.90625 143.304688 121.902344 142.921875 L 121.902344 137.742188 L 132.875 137.742188 C 133.53125 137.742188 134.1875 137.675781 134.832031 137.546875 C 135.480469 137.417969 136.109375 137.226562 136.71875 136.972656 C 137.328125 136.722656 137.90625 136.410156 138.453125 136.042969 C 139 135.679688 139.507812 135.261719 139.972656 134.792969 C 140.441406 134.328125 140.855469 133.820312 141.222656 133.269531 C 141.589844 132.722656 141.898438 132.144531 142.148438 131.535156 C 142.402344 130.925781 142.589844 130.296875 142.71875 129.648438 C 142.847656 129.003906 142.910156 128.347656 142.910156 127.691406 L 142.910156 11.011719 C 142.910156 9.683594 142.652344 8.402344 142.144531 7.171875 C 141.636719 5.941406 140.914062 4.855469 139.976562 3.910156 Z M 12.074219 41.5625 L 21.976562 41.5625 L 21.976562 46.695312 L 12.074219 46.695312 Z M 12.074219 52.023438 L 21.976562 52.023438 L 21.976562 86.332031 L 12.074219 86.332031 Z M 12.074219 91.664062 L 21.976562 91.664062 L 21.976562 96.792969 L 12.074219 96.792969 Z M 48.640625 142.921875 C 48.636719 143.066406 48.609375 143.203125 48.554688 143.335938 C 48.496094 143.46875 48.417969 143.585938 48.316406 143.6875 C 48.214844 143.785156 48.097656 143.867188 47.96875 143.921875 C 47.835938 143.976562 47.695312 144.003906 47.554688 144.007812 L 30.945312 144.007812 C 30.804688 144.003906 30.664062 143.976562 30.53125 143.921875 C 30.402344 143.867188 30.285156 143.785156 30.183594 143.6875 C 30.082031 143.585938 30.003906 143.46875 29.945312 143.335938 C 29.890625 143.203125 29.863281 143.066406 29.859375 142.921875 L 29.859375 137.742188 L 48.640625 137.742188 Z M 117.144531 142.921875 C 117.140625 143.066406 117.113281 143.203125 117.058594 143.335938 C 117 143.46875 116.921875 143.585938 116.820312 143.6875 C 116.71875 143.785156 116.601562 143.867188 116.472656 143.921875 C 116.339844 143.976562 116.199219 144.003906 116.058594 144.007812 L 99.449219 144.007812 C 99.308594 144.003906 99.167969 143.976562 99.035156 143.921875 C 98.902344 143.867188 98.789062 143.785156 98.6875 143.6875 C 98.585938 143.585938 98.507812 143.46875 98.449219 143.335938 C 98.394531 143.203125 98.367188 143.066406 98.363281 142.921875 L 98.363281 137.742188 L 117.144531 137.742188 Z M 137.617188 127.691406 C 137.617188 128 137.585938 128.308594 137.523438 128.613281 C 137.464844 128.917969 137.371094 129.214844 137.253906 129.503906 C 137.132812 129.789062 136.988281 130.0625 136.816406 130.324219 C 136.640625 130.582031 136.445312 130.820312 136.226562 131.039062 C 136.003906 131.261719 135.765625 131.457031 135.507812 131.628906 C 135.25 131.804688 134.976562 131.949219 134.6875 132.070312 C 134.398438 132.1875 134.105469 132.277344 133.796875 132.339844 C 133.492188 132.398438 133.183594 132.429688 132.875 132.429688 L 16.816406 132.429688 C 16.566406 132.425781 16.320312 132.398438 16.074219 132.355469 C 16.015625 132.335938 15.957031 132.355469 15.882812 132.335938 C 14.949219 132.148438 14.152344 131.71875 13.484375 131.039062 C 13.039062 130.597656 12.695312 130.085938 12.453125 129.503906 C 12.210938 128.921875 12.09375 128.316406 12.09375 127.691406 L 12.09375 102.125 L 21.96875 102.125 L 21.96875 114.359375 C 21.964844 114.921875 22.019531 115.484375 22.132812 116.035156 C 22.242188 116.589844 22.402344 117.128906 22.617188 117.652344 C 22.835938 118.175781 23.097656 118.671875 23.414062 119.140625 C 23.726562 119.609375 24.082031 120.046875 24.480469 120.445312 C 24.878906 120.847656 25.3125 121.203125 25.78125 121.519531 C 26.253906 121.832031 26.746094 122.097656 27.269531 122.316406 C 27.792969 122.535156 28.328125 122.699219 28.882812 122.808594 C 29.4375 122.921875 29.996094 122.976562 30.5625 122.980469 L 119.121094 122.980469 C 119.683594 122.980469 120.246094 122.921875 120.800781 122.8125 C 121.355469 122.703125 121.894531 122.539062 122.417969 122.320312 C 122.9375 122.105469 123.433594 121.835938 123.90625 121.523438 C 124.375 121.207031 124.808594 120.851562 125.210938 120.449219 C 125.609375 120.050781 125.964844 119.613281 126.28125 119.144531 C 126.59375 118.675781 126.859375 118.175781 127.074219 117.65625 C 127.289062 117.132812 127.453125 116.59375 127.5625 116.039062 C 127.671875 115.484375 127.726562 114.921875 127.726562 114.359375 L 127.726562 25.347656 C 127.726562 24.207031 127.511719 23.109375 127.074219 22.054688 C 126.640625 21 126.023438 20.066406 125.21875 19.253906 L 125.207031 19.253906 C 124.398438 18.445312 123.46875 17.824219 122.414062 17.386719 C 121.355469 16.949219 120.257812 16.730469 119.113281 16.730469 L 30.554688 16.730469 C 29.992188 16.730469 29.429688 16.785156 28.878906 16.898438 C 28.324219 17.007812 27.785156 17.171875 27.265625 17.390625 C 26.742188 17.609375 26.246094 17.875 25.777344 18.1875 C 25.308594 18.503906 24.875 18.859375 24.476562 19.261719 C 24.074219 19.660156 23.71875 20.097656 23.40625 20.566406 C 23.09375 21.039062 22.828125 21.535156 22.613281 22.054688 C 22.398438 22.578125 22.234375 23.117188 22.125 23.671875 C 22.015625 24.226562 21.960938 24.785156 21.960938 25.351562 L 21.960938 36.234375 L 12.074219 36.234375 L 12.074219 11.011719 C 12.074219 10.703125 12.105469 10.394531 12.164062 10.089844 C 12.226562 9.785156 12.316406 9.492188 12.433594 9.203125 C 12.550781 8.917969 12.699219 8.644531 12.871094 8.386719 C 13.042969 8.128906 13.238281 7.886719 13.457031 7.667969 C 13.675781 7.449219 13.914062 7.25 14.171875 7.078125 C 14.429688 6.90625 14.703125 6.757812 14.988281 6.640625 C 15.273438 6.519531 15.570312 6.429688 15.875 6.367188 C 16.179688 6.304688 16.484375 6.273438 16.796875 6.273438 L 132.855469 6.273438 C 133.109375 6.277344 133.363281 6.304688 133.617188 6.347656 C 133.671875 6.367188 133.730469 6.347656 133.789062 6.367188 C 134.722656 6.558594 135.53125 6.988281 136.207031 7.660156 C 136.652344 8.105469 136.996094 8.617188 137.234375 9.199219 C 137.476562 9.777344 137.597656 10.382812 137.597656 11.011719 L 137.597656 21.578125 C 137.609375 21.578125 137.617188 21.574219 137.617188 21.5625 Z M 27.917969 25.347656 C 27.917969 24.996094 27.984375 24.65625 28.121094 24.332031 C 28.253906 24.003906 28.445312 23.71875 28.695312 23.46875 C 28.945312 23.21875 29.230469 23.023438 29.554688 22.890625 C 29.878906 22.753906 30.21875 22.683594 30.570312 22.683594 L 119.097656 22.683594 C 119.191406 22.6875 119.28125 22.6875 119.371094 22.683594 L 119.617188 22.730469 C 120.144531 22.835938 120.601562 23.078125 120.980469 23.457031 C 121.503906 23.976562 121.765625 24.605469 121.765625 25.339844 L 121.777344 114.351562 C 121.78125 115.085938 121.519531 115.714844 120.996094 116.234375 C 120.476562 116.75 119.847656 117.011719 119.113281 117.015625 L 30.585938 117.015625 C 30.472656 117.015625 30.363281 117 30.324219 117 L 30.300781 117 L 30.042969 116.957031 C 29.527344 116.851562 29.082031 116.609375 28.710938 116.230469 C 28.1875 115.710938 27.925781 115.085938 27.929688 114.347656 Z M 53.300781 88.589844 L 45.359375 96.527344 C 45.039062 96.792969 44.785156 97.113281 44.59375 97.480469 C 44.40625 97.851562 44.300781 98.246094 44.273438 98.660156 C 44.25 99.074219 44.308594 99.476562 44.449219 99.867188 C 44.589844 100.257812 44.804688 100.605469 45.089844 100.90625 C 45.636719 101.457031 46.292969 101.734375 47.066406 101.734375 L 47.09375 101.734375 C 48.039062 101.695312 48.828125 101.328125 49.464844 100.632812 L 57.40625 92.695312 C 58.632812 93.683594 59.933594 94.5625 61.308594 95.332031 C 62.679688 96.101562 64.113281 96.746094 65.597656 97.273438 C 67.082031 97.796875 68.601562 98.191406 70.152344 98.460938 C 71.703125 98.726562 73.269531 98.859375 74.84375 98.859375 C 76.417969 98.859375 77.984375 98.726562 79.535156 98.460938 C 81.085938 98.191406 82.605469 97.796875 84.089844 97.273438 C 85.574219 96.746094 87.003906 96.101562 88.378906 95.332031 C 89.753906 94.5625 91.054688 93.683594 92.28125 92.695312 L 100.0625 100.640625 C 100.453125 101.078125 100.925781 101.382812 101.480469 101.5625 C 102.039062 101.742188 102.601562 101.769531 103.171875 101.640625 C 103.660156 101.507812 104.082031 101.261719 104.4375 100.90625 C 104.796875 100.550781 105.039062 100.128906 105.171875 99.640625 C 105.300781 99.070312 105.273438 98.507812 105.09375 97.949219 C 104.917969 97.394531 104.609375 96.921875 104.171875 96.535156 L 96.386719 88.585938 C 97.378906 87.363281 98.257812 86.0625 99.027344 84.6875 C 99.796875 83.3125 100.445312 81.886719 100.96875 80.398438 C 101.496094 78.914062 101.890625 77.398438 102.15625 75.84375 C 102.421875 74.292969 102.558594 72.730469 102.558594 71.152344 C 102.558594 69.578125 102.421875 68.015625 102.15625 66.464844 C 101.890625 64.910156 101.496094 63.394531 100.96875 61.910156 C 100.445312 60.421875 99.796875 58.992188 99.027344 57.621094 C 98.257812 56.246094 97.378906 54.945312 96.386719 53.722656 L 99.832031 50.28125 C 100.75 49.359375 105.992188 44.128906 105.253906 42.75 C 104.878906 41.789062 104.214844 41.125 103.257812 40.75 C 102.683594 40.621094 102.121094 40.648438 101.5625 40.828125 C 101.003906 41.007812 100.53125 41.316406 100.144531 41.753906 L 92.289062 49.617188 C 91.066406 48.628906 89.765625 47.746094 88.390625 46.980469 C 87.015625 46.210938 85.585938 45.5625 84.101562 45.039062 C 82.617188 44.511719 81.097656 44.117188 79.542969 43.847656 C 77.992188 43.582031 76.425781 43.449219 74.851562 43.449219 C 73.277344 43.449219 71.714844 43.582031 70.160156 43.847656 C 68.609375 44.117188 67.089844 44.511719 65.605469 45.039062 C 64.117188 45.5625 62.6875 46.210938 61.3125 46.980469 C 59.9375 47.746094 58.640625 48.628906 57.414062 49.617188 L 49.476562 41.753906 C 49.089844 41.316406 48.617188 41.007812 48.0625 40.828125 C 47.503906 40.648438 46.941406 40.625 46.371094 40.753906 C 45.882812 40.886719 45.460938 41.128906 45.101562 41.488281 C 44.746094 41.84375 44.5 42.265625 44.371094 42.753906 C 44.242188 43.324219 44.265625 43.886719 44.445312 44.445312 C 44.625 45 44.933594 45.472656 45.371094 45.859375 L 53.308594 53.722656 C 52.316406 54.949219 51.4375 56.246094 50.667969 57.621094 C 49.898438 58.996094 49.25 60.425781 48.726562 61.910156 C 48.199219 63.394531 47.804688 64.914062 47.535156 66.464844 C 47.269531 68.015625 47.136719 69.578125 47.136719 71.15625 C 47.136719 72.730469 47.269531 74.292969 47.535156 75.84375 C 47.800781 77.398438 48.195312 78.917969 48.722656 80.402344 C 49.246094 81.886719 49.890625 83.316406 50.660156 84.691406 C 51.429688 86.066406 52.308594 87.363281 53.300781 88.589844 Z M 57.523438 57.574219 C 58.625 56.1875 59.867188 54.941406 61.253906 53.839844 C 62.214844 53.082031 63.234375 52.410156 64.308594 51.824219 C 65.378906 51.238281 66.496094 50.742188 67.652344 50.34375 C 68.808594 49.941406 69.988281 49.640625 71.195312 49.4375 C 72.402344 49.234375 73.617188 49.132812 74.84375 49.132812 C 76.066406 49.132812 77.28125 49.234375 78.488281 49.4375 C 79.695312 49.640625 80.878906 49.941406 82.035156 50.34375 C 83.191406 50.742188 84.304688 51.238281 85.378906 51.824219 C 86.453125 52.410156 87.46875 53.082031 88.429688 53.839844 C 89.816406 54.941406 91.0625 56.1875 92.164062 57.570312 C 92.921875 58.53125 93.59375 59.550781 94.179688 60.621094 C 94.769531 61.695312 95.261719 62.8125 95.664062 63.96875 C 96.066406 65.121094 96.367188 66.304688 96.570312 67.511719 C 96.773438 68.71875 96.875 69.933594 96.875 71.15625 C 96.875 72.378906 96.773438 73.59375 96.570312 74.800781 C 96.367188 76.007812 96.066406 77.1875 95.664062 78.34375 C 95.261719 79.5 94.769531 80.617188 94.179688 81.691406 C 93.59375 82.761719 92.921875 83.78125 92.164062 84.742188 C 91.613281 85.429688 91.023438 86.085938 90.402344 86.714844 C 89.777344 87.335938 89.117188 87.921875 88.429688 88.472656 C 87.46875 89.230469 86.449219 89.902344 85.378906 90.488281 C 84.304688 91.078125 83.1875 91.570312 82.03125 91.972656 C 80.875 92.371094 79.695312 92.675781 78.488281 92.878906 C 77.28125 93.082031 76.066406 93.183594 74.84375 93.183594 C 73.617188 93.183594 72.402344 93.082031 71.195312 92.878906 C 69.992188 92.675781 68.808594 92.371094 67.652344 91.972656 C 66.496094 91.570312 65.382812 91.078125 64.308594 90.488281 C 63.234375 89.902344 62.21875 89.230469 61.257812 88.472656 C 59.867188 87.371094 58.625 86.125 57.527344 84.734375 C 56.769531 83.773438 56.097656 82.757812 55.507812 81.683594 C 54.921875 80.613281 54.429688 79.496094 54.027344 78.339844 C 53.625 77.1875 53.324219 76.003906 53.121094 74.796875 C 52.917969 73.59375 52.816406 72.378906 52.816406 71.15625 C 52.816406 69.929688 52.917969 68.714844 53.121094 67.511719 C 53.324219 66.304688 53.625 65.125 54.027344 63.96875 C 54.425781 62.8125 54.921875 61.699219 55.507812 60.625 C 56.09375 59.550781 56.765625 58.535156 57.523438 57.574219 Z M 57.523438 57.574219 " fill-opacity="1" fill-rule="nonzero"/></g><g fill="#000000" fill-opacity="1"><g transform="translate(65.065464, 83.960374)"><g><path d="M 7.3125 -9.890625 C 7.3125 -10.722656 7.414062 -11.445312 7.625 -12.0625 C 7.832031 -12.675781 8.171875 -13.257812 8.640625 -13.8125 C 9.109375 -14.363281 9.773438 -14.960938 10.640625 -15.609375 L 12.359375 -16.953125 C 13.109375 -17.523438 13.65625 -18.148438 14 -18.828125 C 14.351562 -19.515625 14.53125 -20.316406 14.53125 -21.234375 C 14.53125 -22.367188 14.101562 -23.273438 13.25 -23.953125 C 12.40625 -24.628906 11.222656 -24.96875 9.703125 -24.96875 C 7.054688 -24.96875 5.082031 -23.789062 3.78125 -21.4375 L 3.34375 -21.34375 L 1.40625 -23.390625 C 3.332031 -26.378906 6.097656 -27.875 9.703125 -27.875 C 11.503906 -27.875 13.019531 -27.582031 14.25 -27 C 15.488281 -26.414062 16.40625 -25.625 17 -24.625 C 17.601562 -23.625 17.90625 -22.492188 17.90625 -21.234375 C 17.90625 -19.804688 17.582031 -18.601562 16.9375 -17.625 C 16.300781 -16.644531 15.378906 -15.6875 14.171875 -14.75 L 12.640625 -13.59375 C 12.046875 -13.125 11.59375 -12.707031 11.28125 -12.34375 C 10.976562 -11.988281 10.765625 -11.601562 10.640625 -11.1875 C 10.515625 -10.78125 10.453125 -10.269531 10.453125 -9.65625 L 10.453125 -9.109375 L 7.3125 -9.109375 Z M 8.796875 0.1875 C 8.078125 0.1875 7.507812 -0.0078125 7.09375 -0.40625 C 6.6875 -0.8125 6.484375 -1.347656 6.484375 -2.015625 C 6.484375 -2.660156 6.6875 -3.191406 7.09375 -3.609375 C 7.507812 -4.035156 8.078125 -4.25 8.796875 -4.25 C 9.503906 -4.25 10.066406 -4.046875 10.484375 -3.640625 C 10.898438 -3.242188 11.109375 -2.710938 11.109375 -2.046875 C 11.109375 -1.378906 10.898438 -0.835938 10.484375 -0.421875 C 10.066406 -0.015625 9.503906 0.1875 8.796875 0.1875 Z M 8.796875 0.1875 "/></g></g></g><g fill="#000000" fill-opacity="1"><g transform="translate(52.146173, 16.066058)"><g><path d="M 3.171875 -1.390625 L 3.171875 -3.5 C 3.171875 -3.65625 3.144531 -3.757812 3.09375 -3.8125 C 3.050781 -3.863281 2.945312 -3.890625 2.78125 -3.890625 L 1.765625 -3.890625 C 0.929688 -3.890625 0.515625 -4.296875 0.515625 -5.109375 L 0.515625 -7.375 C 0.515625 -8.175781 0.941406 -8.578125 1.796875 -8.578125 L 3.140625 -8.578125 C 3.984375 -8.578125 4.40625 -8.175781 4.40625 -7.375 L 4.40625 -6.109375 L 3.171875 -6.109375 L 3.171875 -7.1875 C 3.171875 -7.34375 3.140625 -7.445312 3.078125 -7.5 C 3.023438 -7.550781 2.914062 -7.578125 2.75 -7.578125 L 2.171875 -7.578125 C 2.015625 -7.578125 1.90625 -7.550781 1.84375 -7.5 C 1.789062 -7.445312 1.765625 -7.34375 1.765625 -7.1875 L 1.765625 -5.28125 C 1.765625 -5.113281 1.789062 -5.003906 1.84375 -4.953125 C 1.90625 -4.898438 2.015625 -4.875 2.171875 -4.875 L 3.171875 -4.875 C 4.015625 -4.875 4.4375 -4.472656 4.4375 -3.671875 L 4.4375 -1.203125 C 4.4375 -0.398438 4.007812 0 3.15625 0 L 1.828125 0 C 0.972656 0 0.546875 -0.398438 0.546875 -1.203125 L 0.546875 -2.46875 L 1.796875 -2.46875 L 1.796875 -1.390625 C 1.796875 -1.234375 1.820312 -1.128906 1.875 -1.078125 C 1.925781 -1.023438 2.035156 -1 2.203125 -1 L 2.78125 -1 C 2.945312 -1 3.050781 -1.023438 3.09375 -1.078125 C 3.144531 -1.128906 3.171875 -1.234375 3.171875 -1.390625 Z M 3.171875 -1.390625 "/></g></g></g><g fill="#000000" fill-opacity="1"><g transform="translate(57.090515, 16.066058)"><g><path d="M 1.84375 -6.6875 L 3.1875 -6.6875 C 4.050781 -6.6875 4.484375 -6.28125 4.484375 -5.46875 L 4.484375 -2.953125 L 1.78125 -2.953125 L 1.78125 -1.375 C 1.78125 -1.21875 1.804688 -1.109375 1.859375 -1.046875 C 1.921875 -0.992188 2.03125 -0.96875 2.1875 -0.96875 L 2.828125 -0.96875 C 2.984375 -0.96875 3.085938 -0.992188 3.140625 -1.046875 C 3.203125 -1.109375 3.234375 -1.222656 3.234375 -1.390625 L 3.234375 -1.9375 L 4.4375 -1.9375 L 4.4375 -1.203125 C 4.4375 -0.398438 4.015625 0 3.171875 0 L 1.84375 0 C 1 0 0.578125 -0.398438 0.578125 -1.203125 L 0.578125 -5.46875 C 0.578125 -6.28125 1 -6.6875 1.84375 -6.6875 Z M 1.78125 -3.859375 L 3.265625 -3.859375 L 3.265625 -5.3125 C 3.265625 -5.46875 3.238281 -5.570312 3.1875 -5.625 C 3.132812 -5.6875 3.023438 -5.71875 2.859375 -5.71875 L 2.1875 -5.71875 C 2.03125 -5.71875 1.921875 -5.6875 1.859375 -5.625 C 1.804688 -5.570312 1.78125 -5.46875 1.78125 -5.3125 Z M 1.78125 -3.859375 "/></g></g></g><g fill="#000000" fill-opacity="1"><g transform="translate(62.021167, 16.066058)"><g><path d="M 4.390625 -4.578125 L 3.171875 -4.578125 L 3.171875 -5.296875 C 3.171875 -5.453125 3.140625 -5.554688 3.078125 -5.609375 C 3.023438 -5.660156 2.914062 -5.6875 2.75 -5.6875 L 2.171875 -5.6875 C 2.003906 -5.6875 1.890625 -5.660156 1.828125 -5.609375 C 1.773438 -5.554688 1.75 -5.453125 1.75 -5.296875 L 1.75 -1.390625 C 1.75 -1.234375 1.773438 -1.128906 1.828125 -1.078125 C 1.890625 -1.023438 2.003906 -1 2.171875 -1 L 2.75 -1 C 2.914062 -1 3.023438 -1.023438 3.078125 -1.078125 C 3.140625 -1.128906 3.171875 -1.234375 3.171875 -1.390625 L 3.171875 -2.109375 L 4.390625 -2.109375 L 4.390625 -1.203125 C 4.390625 -0.398438 3.957031 0 3.09375 0 L 1.796875 0 C 0.941406 0 0.515625 -0.398438 0.515625 -1.203125 L 0.515625 -5.46875 C 0.515625 -6.28125 0.941406 -6.6875 1.796875 -6.6875 L 3.09375 -6.6875 C 3.957031 -6.6875 4.390625 -6.28125 4.390625 -5.46875 Z M 4.390625 -4.578125 "/></g></g></g><g fill="#000000" fill-opacity="1"><g transform="translate(66.828549, 16.066058)"><g><path d="M 2.921875 -6.703125 L 3.1875 -6.703125 L 3.1875 -5.625 L 2.703125 -5.625 C 2.128906 -5.625 1.84375 -5.289062 1.84375 -4.625 L 1.84375 0 L 0.609375 0 L 0.609375 -6.6875 L 1.84375 -6.6875 L 1.84375 -5.859375 C 1.914062 -6.097656 2.039062 -6.296875 2.21875 -6.453125 C 2.40625 -6.617188 2.640625 -6.703125 2.921875 -6.703125 Z M 2.921875 -6.703125 "/></g></g></g><g fill="#000000" fill-opacity="1"><g transform="translate(70.08825, 16.066058)"><g><path d="M 1.84375 -6.6875 L 3.1875 -6.6875 C 4.050781 -6.6875 4.484375 -6.28125 4.484375 -5.46875 L 4.484375 -2.953125 L 1.78125 -2.953125 L 1.78125 -1.375 C 1.78125 -1.21875 1.804688 -1.109375 1.859375 -1.046875 C 1.921875 -0.992188 2.03125 -0.96875 2.1875 -0.96875 L 2.828125 -0.96875 C 2.984375 -0.96875 3.085938 -0.992188 3.140625 -1.046875 C 3.203125 -1.109375 3.234375 -1.222656 3.234375 -1.390625 L 3.234375 -1.9375 L 4.4375 -1.9375 L 4.4375 -1.203125 C 4.4375 -0.398438 4.015625 0 3.171875 0 L 1.84375 0 C 1 0 0.578125 -0.398438 0.578125 -1.203125 L 0.578125 -5.46875 C 0.578125 -6.28125 1 -6.6875 1.84375 -6.6875 Z M 1.78125 -3.859375 L 3.265625 -3.859375 L 3.265625 -5.3125 C 3.265625 -5.46875 3.238281 -5.570312 3.1875 -5.625 C 3.132812 -5.6875 3.023438 -5.71875 2.859375 -5.71875 L 2.1875 -5.71875 C 2.03125 -5.71875 1.921875 -5.6875 1.859375 -5.625 C 1.804688 -5.570312 1.78125 -5.46875 1.78125 -5.3125 Z M 1.78125 -3.859375 "/></g></g></g><g fill="#000000" fill-opacity="1"><g transform="translate(75.018902, 16.066058)"><g><path d="M 2.859375 -5.6875 L 1.953125 -5.6875 L 1.953125 -1.453125 C 1.953125 -1.285156 1.972656 -1.175781 2.015625 -1.125 C 2.066406 -1.082031 2.175781 -1.0625 2.34375 -1.0625 L 2.859375 -1.0625 L 2.859375 0 L 1.984375 0 C 1.128906 0 0.703125 -0.398438 0.703125 -1.203125 L 0.703125 -5.6875 L 0.0625 -5.6875 L 0.0625 -6.6875 L 0.703125 -6.6875 L 0.703125 -7.828125 L 1.953125 -7.828125 L 1.953125 -6.6875 L 2.859375 -6.6875 Z M 2.859375 -5.6875 "/></g></g></g><g fill="#000000" fill-opacity="1"><g transform="translate(78.018375, 16.066058)"><g/></g></g><g fill="#000000" fill-opacity="1"><g transform="translate(80.004329, 16.066058)"><g><path d="M 3.171875 -1.390625 L 3.171875 -3.5 C 3.171875 -3.65625 3.144531 -3.757812 3.09375 -3.8125 C 3.050781 -3.863281 2.945312 -3.890625 2.78125 -3.890625 L 1.765625 -3.890625 C 0.929688 -3.890625 0.515625 -4.296875 0.515625 -5.109375 L 0.515625 -7.375 C 0.515625 -8.175781 0.941406 -8.578125 1.796875 -8.578125 L 3.140625 -8.578125 C 3.984375 -8.578125 4.40625 -8.175781 4.40625 -7.375 L 4.40625 -6.109375 L 3.171875 -6.109375 L 3.171875 -7.1875 C 3.171875 -7.34375 3.140625 -7.445312 3.078125 -7.5 C 3.023438 -7.550781 2.914062 -7.578125 2.75 -7.578125 L 2.171875 -7.578125 C 2.015625 -7.578125 1.90625 -7.550781 1.84375 -7.5 C 1.789062 -7.445312 1.765625 -7.34375 1.765625 -7.1875 L 1.765625 -5.28125 C 1.765625 -5.113281 1.789062 -5.003906 1.84375 -4.953125 C 1.90625 -4.898438 2.015625 -4.875 2.171875 -4.875 L 3.171875 -4.875 C 4.015625 -4.875 4.4375 -4.472656 4.4375 -3.671875 L 4.4375 -1.203125 C 4.4375 -0.398438 4.007812 0 3.15625 0 L 1.828125 0 C 0.972656 0 0.546875 -0.398438 0.546875 -1.203125 L 0.546875 -2.46875 L 1.796875 -2.46875 L 1.796875 -1.390625 C 1.796875 -1.234375 1.820312 -1.128906 1.875 -1.078125 C 1.925781 -1.023438 2.035156 -1 2.203125 -1 L 2.78125 -1 C 2.945312 -1 3.050781 -1.023438 3.09375 -1.078125 C 3.144531 -1.128906 3.171875 -1.234375 3.171875 -1.390625 Z M 3.171875 -1.390625 "/></g></g></g><g fill="#000000" fill-opacity="1"><g transform="translate(84.94867, 16.066058)"><g><path d="M 3.09375 -6.6875 L 4.328125 -6.6875 L 4.328125 0 L 3.09375 0 L 3.09375 -0.53125 C 2.976562 -0.175781 2.695312 0 2.25 0 L 1.75 0 C 0.925781 0 0.515625 -0.398438 0.515625 -1.203125 L 0.515625 -5.46875 C 0.515625 -6.28125 0.925781 -6.6875 1.75 -6.6875 L 2.25 -6.6875 C 2.695312 -6.6875 2.976562 -6.507812 3.09375 -6.15625 Z M 2.171875 -1 L 2.640625 -1 C 2.804688 -1 2.921875 -1.035156 2.984375 -1.109375 C 3.054688 -1.179688 3.09375 -1.304688 3.09375 -1.484375 L 3.09375 -5.203125 C 3.09375 -5.378906 3.054688 -5.503906 2.984375 -5.578125 C 2.921875 -5.648438 2.804688 -5.6875 2.640625 -5.6875 L 2.171875 -5.6875 C 2.003906 -5.6875 1.890625 -5.660156 1.828125 -5.609375 C 1.773438 -5.554688 1.75 -5.453125 1.75 -5.296875 L 1.75 -1.390625 C 1.75 -1.234375 1.773438 -1.128906 1.828125 -1.078125 C 1.890625 -1.023438 2.003906 -1 2.171875 -1 Z M 2.171875 -1 "/></g></g></g><g fill="#000000" fill-opacity="1"><g transform="translate(89.879322, 16.066058)"><g><path d="M 2.96875 -8.125 L 2.390625 -8.125 C 2.234375 -8.125 2.125 -8.097656 2.0625 -8.046875 C 2.007812 -7.992188 1.984375 -7.890625 1.984375 -7.734375 L 1.984375 -6.6875 L 2.96875 -6.6875 L 2.96875 -5.6875 L 1.984375 -5.6875 L 1.984375 0 L 0.75 0 L 0.75 -5.6875 L 0.078125 -5.6875 L 0.078125 -6.6875 L 0.75 -6.6875 L 0.75 -7.96875 C 0.75 -8.769531 1.175781 -9.171875 2.03125 -9.171875 L 2.96875 -9.171875 Z M 2.96875 -8.125 "/></g></g></g><g fill="#000000" fill-opacity="1"><g transform="translate(92.919894, 16.066058)"><g><path d="M 1.84375 -6.6875 L 3.1875 -6.6875 C 4.050781 -6.6875 4.484375 -6.28125 4.484375 -5.46875 L 4.484375 -2.953125 L 1.78125 -2.953125 L 1.78125 -1.375 C 1.78125 -1.21875 1.804688 -1.109375 1.859375 -1.046875 C 1.921875 -0.992188 2.03125 -0.96875 2.1875 -0.96875 L 2.828125 -0.96875 C 2.984375 -0.96875 3.085938 -0.992188 3.140625 -1.046875 C 3.203125 -1.109375 3.234375 -1.222656 3.234375 -1.390625 L 3.234375 -1.9375 L 4.4375 -1.9375 L 4.4375 -1.203125 C 4.4375 -0.398438 4.015625 0 3.171875 0 L 1.84375 0 C 1 0 0.578125 -0.398438 0.578125 -1.203125 L 0.578125 -5.46875 C 0.578125 -6.28125 1 -6.6875 1.84375 -6.6875 Z M 1.78125 -3.859375 L 3.265625 -3.859375 L 3.265625 -5.3125 C 3.265625 -5.46875 3.238281 -5.570312 3.1875 -5.625 C 3.132812 -5.6875 3.023438 -5.71875 2.859375 -5.71875 L 2.1875 -5.71875 C 2.03125 -5.71875 1.921875 -5.6875 1.859375 -5.625 C 1.804688 -5.570312 1.78125 -5.46875 1.78125 -5.3125 Z M 1.78125 -3.859375 "/></g></g></g></svg>